<svg width="25" height="25" viewBox="0 0 25 25" fill="none" xmlns="http://www.w3.org/2000/svg">
<path fill-rule="evenodd" clip-rule="evenodd" d="M12.5 0.5C19.117 0.5 24.5 5.88302 24.5 12.5C24.5 19.117 19.117 24.5 12.5 24.5C5.88302 24.5 0.5 19.117 0.5 12.5C0.5 5.88302 5.88302 0.5 12.5 0.5ZM12.5 2.2561C6.85122 2.2561 2.2561 6.85122 2.2561 12.5C2.2561 18.1488 6.85122 22.7439 12.5 22.7439C18.1488 22.7439 22.7439 18.1488 22.7439 12.5C22.7439 6.85122 18.1488 2.2561 12.5 2.2561ZM12.0092 8.41579C12.618 8.66983 16.89 10.8579 16.89 12.4946C16.89 14.0283 13.0453 16.1731 12.0631 16.5828C11.6803 16.742 11.2436 16.8919 10.835 16.8919C10.5189 16.8919 10.2192 16.8017 9.9745 16.5582C9.78601 16.3721 9.28259 15.8745 9.28025 12.5976C9.27908 9.11822 9.8024 8.60076 9.9745 8.42866C10.5868 7.82222 11.5843 8.23783 12.0092 8.41579ZM11.1932 9.967C10.986 11.1389 10.9825 13.9381 11.1897 15.0503C12.2176 14.6874 14.4444 13.224 15.0438 12.4993C14.4467 11.7957 12.2481 10.3627 11.1932 9.967Z" fill="#F8ECD7"/>
</svg>
